<?xml version="1.0" encoding="UTF-8"?>
<svg width="800" height="600" viewBox="0 0 800 600" xmlns="http://www.w3.org/2000/svg">
  <rect width="800" height="600" fill="#FFFFFF" />
  <rect x="20" y="20" width="760" height="560" fill="#FFFFF0" stroke="#D4AF37" stroke-width="10" />
  <rect x="40" y="40" width="720" height="520" fill="none" stroke="#D4AF37" stroke-width="1" />

  <text x="400" y="100" font-family="Arial" font-size="24" text-anchor="middle" fill="#000000">شهادة شكر وتقدير</text>
  <text x="400" y="150" font-family="Arial" font-size="18" text-anchor="middle" fill="#000000">تمنح إلى</text>
  <text x="400" y="200" font-family="Arial" font-size="22" font-weight="bold" text-anchor="middle" fill="#000000">[الاسم]</text>
  
  <text x="400" y="250" font-family="Arial" font-size="16" text-anchor="middle" fill="#000000">وذلك نظير جهوده المتميزة في</text>
  <text x="400" y="280" font-family="Arial" font-size="16" text-anchor="middle" fill="#000000">[سبب منح الشهادة]</text>
  <text x="400" y="310" font-family="Arial" font-size="16" text-anchor="middle" fill="#000000">نقدر جهودكم ونتمنى لكم دوام التوفيق والنجاح</text>

  <text x="200" y="420" font-family="Arial" font-size="16" text-anchor="middle" fill="#000000">[المنصب الأول]</text>
  <line x1="150" y1="400" x2="250" y2="400" stroke="#000000" stroke-width="1" />
  <text x="200" y="380" font-family="Arial" font-size="16" text-anchor="middle" fill="#000000">[الاسم الأول]</text>

  <text x="400" y="420" font-family="Arial" font-size="16" text-anchor="middle" fill="#000000">[المنصب الثاني]</text>
  <line x1="350" y1="400" x2="450" y2="400" stroke="#000000" stroke-width="1" />
  <text x="400" y="380" font-family="Arial" font-size="16" text-anchor="middle" fill="#000000">[الاسم الثاني]</text>

  <text x="600" y="420" font-family="Arial" font-size="16" text-anchor="middle" fill="#000000">[المنصب الثالث]</text>
  <line x1="550" y1="400" x2="650" y2="400" stroke="#000000" stroke-width="1" />
  <text x="600" y="380" font-family="Arial" font-size="16" text-anchor="middle" fill="#000000">[الاسم الثالث]</text>

  <text x="400" y="500" font-family="Arial" font-size="14" text-anchor="middle" fill="#000000">تاريخ الإصدار: [التاريخ]</text>
  <text x="150" y="500" font-family="Arial" font-size="14" text-anchor="middle" fill="#000000">رقم التحقق: [الرقم]</text>

  <path d="M650,480 C670,490 690,500 700,520" fill="none" stroke="#D4AF37" stroke-width="1" />
  <path d="M700,520 C685,510 680,500 675,480" fill="none" stroke="#D4AF37" stroke-width="1" />
  <circle cx="687" cy="500" r="25" fill="none" stroke="#D4AF37" stroke-width="1" />
</svg>